<?xml version="1.0" standalone="no"?>
<!DOCTYPE svg PUBLIC "-//W3C//DTD SVG 20010904//EN"
 "http://www.w3.org/TR/2001/REC-SVG-20010904/DTD/svg10.dtd">
<svg version="1.0" xmlns="http://www.w3.org/2000/svg"
 width="294.000000pt" height="294.000000pt" viewBox="0 0 294.000000 294.000000"
 preserveAspectRatio="xMidYMid meet">
<metadata>
Created by potrace 1.14, written by Peter Selinger 2001-2017
</metadata>
<g transform="translate(0.000000,294.000000) scale(0.100000,-0.100000)"
fill="#000000" stroke="none">
<path d="M1208 2650 c-152 -38 -280 -109 -612 -339 -166 -116 -286 -166 -424
-178 -39 -3 -72 -10 -72 -15 0 -5 13 -36 29 -68 68 -136 159 -245 288 -341 85
-64 270 -169 299 -169 12 0 24 -44 24 -84 0 -12 13 -43 29 -68 l29 -46 -23
-32 c-52 -71 -40 -169 29 -235 23 -22 57 -52 76 -66 l35 -26 0 -169 c0 -166 0
-170 29 -229 35 -71 127 -165 209 -214 184 -109 374 -118 573 -26 133 61 220
142 272 253 26 55 27 62 25 219 l-2 162 66 57 c36 32 72 73 79 91 21 49 17
111 -10 170 -22 47 -23 53 -9 65 25 20 43 73 43 123 l0 45 123 60 c221 108
401 272 487 445 22 44 40 84 40 88 0 4 -20 7 -43 7 -67 0 -190 35 -270 77 -40
21 -155 100 -257 176 -191 142 -302 205 -405 232 -75 19 -190 19 -245 0 -39
-14 -44 -14 -67 5 -65 51 -208 63 -345 30z m120 -127 c-54 -104 -59 -155 -24
-228 36 -72 89 -105 167 -105 l55 0 -4 -192 -3 -193 -92 -7 c-111 -9 -262 -33
-377 -60 -88 -21 -161 -28 -153 -15 2 4 13 7 23 7 10 0 20 4 22 9 9 24 196
102 377 157 8 3 11 7 8 10 -12 12 -297 -46 -380 -78 -21 -8 -31 -8 -40 2 -8 9
-8 11 -1 7 7 -4 14 0 17 8 3 8 58 40 122 71 114 56 133 69 121 82 -14 14 -205
-53 -258 -90 -16 -11 -28 -16 -28 -11 0 10 39 68 88 132 69 91 -13 67 -106
-31 l-41 -43 6 50 6 50 -40 -41 c-62 -64 -104 -91 -167 -109 -101 -29 -197 -6
-283 70 -24 20 -43 40 -43 43 0 4 32 15 72 25 104 26 192 73 378 203 246 172
345 225 493 264 85 22 90 22 85 13z m-443 -713 c-3 -5 -12 -10 -18 -10 -7 0
-6 4 3 10 19 12 23 12 15 0z m1015 -138 c0 -4 -23 -16 -52 -27 -79 -30 -261
-155 -247 -169 3 -3 59 19 125 51 149 71 218 81 252 38 37 -47 47 -103 28
-156 l-17 -46 31 -47 c39 -58 48 -111 26 -154 -24 -47 -51 -59 -155 -71 -109
-12 -174 -40 -202 -85 -26 -42 -24 -52 12 -85 34 -32 34 -57 -2 -79 -18 -12
-24 -11 -40 7 -26 28 -44 27 -25 -1 22 -30 21 -34 -15 -49 -28 -11 -33 -11
-46 7 -12 16 -15 17 -23 4 -5 -8 -10 -18 -10 -22 0 -5 -9 -8 -19 -8 -19 0 -23
6 -36 64 -5 23 -8 27 -16 15 -5 -7 -9 -26 -9 -41 0 -26 -3 -28 -44 -28 -63 0
-76 7 -77 44 0 17 -3 24 -6 16 -18 -47 -44 -44 -95 12 -30 33 -28 48 11 80 68
58 -26 133 -193 153 -32 4 -63 14 -71 21 -7 8 -26 15 -40 16 -36 3 -75 51 -75
90 0 17 15 59 34 92 31 56 33 63 20 86 -7 14 -13 43 -14 65 0 47 37 100 93
130 l35 18 135 -76 c74 -42 138 -77 141 -77 3 0 28 -11 55 -24 33 -16 54 -20
65 -14 9 5 16 12 16 17 0 8 -239 162 -282 182 -16 7 -28 15 -28 19 0 4 39 12
88 19 48 6 98 13 112 15 51 7 560 6 560 -2z m-800 -857 c0 -31 36 -104 54
-111 7 -3 24 0 39 5 22 9 28 7 37 -9 5 -10 10 -28 10 -39 0 -24 15 -28 24 -6
3 10 19 15 45 15 34 0 43 -5 58 -30 20 -34 53 -41 53 -10 0 16 7 20 33 20 17
0 45 -7 61 -15 35 -19 37 -19 30 0 -9 23 33 19 46 -5 9 -16 15 -18 31 -10 11
6 17 16 13 22 -8 13 14 28 43 28 13 0 24 -8 28 -20 11 -33 25 -22 25 19 0 44
25 75 41 50 5 -8 9 -22 9 -33 0 -28 26 -3 62 61 16 29 34 53 40 53 15 0 -1
-110 -24 -155 -26 -52 -60 -88 -125 -131 -61 -41 -73 -42 -73 -9 0 28 -21 33
-41 9 -16 -20 -73 -49 -123 -62 -49 -14 -127 11 -183 57 -47 39 -53 39 -53 0
l0 -30 -31 18 c-84 49 -149 129 -164 200 -7 37 12 143 26 143 5 0 9 -11 9 -25z
m154 -7 c14 -19 13 -24 -5 -50 -21 -30 -56 -37 -77 -16 -17 17 -15 32 9 62 25
32 53 33 73 4z m511 -9 c19 -35 19 -35 -17 -44 -21 -5 -29 -2 -38 15 -9 18 -8
25 6 41 23 26 31 24 49 -12z m-431 -32 c11 -8 17 -23 14 -38 -2 -20 -9 -25
-40 -27 -36 -3 -38 -2 -38 25 0 48 29 65 64 40z m141 -27 c23 -45 19 -58 -25
-71 -35 -11 -42 -10 -60 6 -36 33 -22 72 31 85 19 4 35 8 36 9 1 1 9 -12 18
-29z m213 8 c4 -18 -37 -60 -53 -55 -5 2 -11 16 -13 30 -3 21 2 29 20 36 29
12 42 9 46 -11z m-100 0 c22 -22 14 -58 -14 -69 -34 -12 -61 -4 -70 23 -12 39
55 75 84 46z"/>
<path d="M1882 1480 c-33 -28 -160 -95 -205 -110 -49 -15 -98 -6 -136 26 -36
30 -46 19 -36 -43 5 -36 16 -55 53 -92 69 -69 128 -94 206 -89 122 8 206 78
205 173 0 42 -38 146 -54 151 -6 2 -20 -5 -33 -16z"/>
<path d="M1000 1425 c-18 -43 -21 -67 -17 -106 13 -104 61 -143 177 -143 92
-1 146 15 202 57 40 30 44 38 50 92 4 32 6 60 4 63 -2 2 -18 -4 -35 -12 -16
-9 -46 -16 -65 -16 -44 0 -145 38 -230 85 l-64 35 -22 -55z"/>
<path d="M1439 1184 c-38 -45 -79 -122 -79 -145 0 -56 55 -78 84 -34 19 28 36
25 36 -7 0 -19 4 -20 42 -14 49 8 78 30 78 60 0 11 -14 44 -32 73 -31 51 -48
66 -48 42 0 -7 -11 0 -25 15 -28 30 -38 32 -56 10z"/>
<path d="M1282 1015 c0 -16 2 -22 5 -12 2 9 2 23 0 30 -3 6 -5 -1 -5 -18z"/>
</g>
</svg>
